<?xml version="1.0" encoding="utf-8"?>
<!-- Generator: Adobe Illustrator 20.1.0, SVG Export Plug-In . SVG Version: 6.00 Build 0)  -->
<svg version="1.1" id="Capa_1" xmlns="http://www.w3.org/2000/svg" xmlns:xlink="http://www.w3.org/1999/xlink" x="0px" y="0px"
	 viewBox="0 0 30 30" enable-background="new 0 0 30 30" xml:space="preserve">
<g>
	<path fill="#00A2F4" d="M18.5,23.1l-0.8-0.7c-0.2-0.2-0.6-0.2-0.8,0s-0.1,0.5,0.1,0.8l0.8,0.7c0.2,0.2,0.6,0.2,0.8,0
		S18.8,23.3,18.5,23.1z"/>
	<path fill="#00A2F4" d="M22,26.4l5.2-6c3.9-4.5,3.7-11-0.1-15.3c0.7-0.1,1.2-0.3,1.7-0.9c0.9-1.1,0.8-2.7-0.3-3.6
		c-1.1-0.9-2.8-0.9-3.8,0.2C24.2,1.4,24,1.9,24,2.6c-5-3-11.6-2.2-15.5,2.3l-5.1,5.9c-1-0.3-2.1,0-2.8,0.8c-0.9,1.1-0.8,2.7,0.3,3.6
		L5.4,19c-1.2,2.1-0.7,4.8,1.2,6.4c2,1.6,4.8,1.7,6.6,0.2l4.5,3.8c1.1,1,2.8,0.9,3.8-0.2C22.4,28.4,22.4,27.3,22,26.4z M25.5,1.5
		c0.6-0.7,1.6-0.7,2.2-0.1c0.7,0.5,0.8,1.5,0.2,2.2s-1.6,0.7-2.2,0.1S25,2.1,25.5,1.5z M7.5,24.7c-1.6-1.3-1.9-3.3-1.1-5l4.5,3.8
		c-0.7,0.2-1.4,0.1-2.1-0.4c-0.2-0.2-0.6-0.2-0.8,0s-0.1,0.5,0.1,0.8c1,0.9,2.5,1,3.7,0.3l0.9,0.8C11.1,26,8.9,25.9,7.5,24.7z
		 M18.7,28.7l-4.9-4.1l0,0l-1.7-1.4l0,0l-5.5-4.7l0,0l-4.9-4.1c-0.7-0.5-0.8-1.5-0.2-2.2C2,11.5,3,11.5,3.7,12l11.7,9.9
		c0.2,0.2,0.6,0.2,0.8,0c0.2-0.2,0.1-0.5-0.1-0.8L4.4,11.3l5.1-5.8c3.9-4.5,10.9-4.9,15.6-1s5.3,10.8,1.4,15.2l-5.1,5.8l-1.2-1
		c-0.2-0.2-0.6-0.2-0.8,0c-0.2,0.2-0.1,0.5,0.1,0.8l1.2,1c0.7,0.5,0.8,1.5,0.2,2.2C20.3,29.1,19.3,29.2,18.7,28.7z"/>
	<path fill="#00A2F4" d="M24.9,18.3l-0.4,0.4c-0.2,0.2-0.1,0.5,0.1,0.8c0.2,0.2,0.6,0.2,0.8,0l0.3-0.4c1.2-1.4,2.1-3.3,2.2-5.1
		c0-0.3-0.2-0.5-0.4-0.5c-0.3,0-0.6,0.1-0.6,0.4C26.6,15.5,26,17,24.9,18.3z"/>
	<path fill="#00A2F4" d="M27,11.9c0.1,0.1,0.2,0.1,0.4,0.1c0.3,0,0.4-0.3,0.4-0.5c-0.1-0.4-0.2-1-0.3-1.4c-0.1-0.3-0.3-0.4-0.7-0.3
		c-0.2,0-0.4,0.3-0.3,0.5c0.1,0.4,0.2,0.9,0.2,1.2C26.9,11.7,26.9,11.8,27,11.9z"/>
</g>
</svg>
