<?xml version="1.0" encoding="utf-8"?>
<!-- Generator: Adobe Illustrator 20.1.0, SVG Export Plug-In . SVG Version: 6.00 Build 0)  -->
<svg version="1.1" id="Слой_1" xmlns="http://www.w3.org/2000/svg" xmlns:xlink="http://www.w3.org/1999/xlink" x="0px" y="0px"
	 viewBox="0 0 25 25" enable-background="new 0 0 25 25" xml:space="preserve">
<g>
	<path fill="#FAFAFA" d="M11.2,12.5l-11,11.2c-0.3,0.3-0.3,0.8,0,1C0.4,25,0.4,25,0.7,25s0.5,0,0.5-0.3l11.3-11.3l11.3,11.3
		c0,0.3,0.3,0.3,0.5,0.3c0.3,0,0.5,0,0.5-0.3c0.3-0.3,0.3-0.8,0-1l-11-11.2l11-11.3c0.3-0.3,0.3-0.8,0-1c-0.3-0.3-0.8-0.3-1,0
		L12.5,11.5L1.2,0.2c-0.3-0.3-0.8-0.3-1,0s-0.3,0.8,0,1L11.2,12.5z"/>
</g>
</svg>
