<?xml version="1.0" encoding="utf-8"?>
<!-- Generator: Adobe Illustrator 20.1.0, SVG Export Plug-In . SVG Version: 6.00 Build 0)  -->
<svg version="1.1" id="Capa_1" xmlns="http://www.w3.org/2000/svg" xmlns:xlink="http://www.w3.org/1999/xlink" x="0px" y="0px"
	 viewBox="0 0 30 30" enable-background="new 0 0 30 30" xml:space="preserve">
<g>
	<path fill="#7CBB00" d="M15,0C6.7,0,0,6.7,0,15s6.7,15,15,15s15-6.7,15-15S23.3,0,15,0z M15,28.8C7.4,28.8,1.2,22.6,1.2,15
		S7.4,1.2,15,1.2S28.8,7.4,28.8,15S22.6,28.8,15,28.8z"/>
	<path fill="#7CBB00" d="M22.1,8.8l-8.9,10l-5.3-4.3c-0.2-0.2-0.6-0.2-0.8,0.1c-0.2,0.2-0.2,0.6,0.1,0.8L13,20
		c0.1,0.1,0.2,0.1,0.4,0.1s0.3-0.1,0.4-0.2L23,9.5c0.2-0.2,0.2-0.6,0-0.8C22.6,8.6,22.3,8.6,22.1,8.8z"/>
</g>
</svg>
