<?xml version="1.0" encoding="utf-8"?>
<!-- Generator: Adobe Illustrator 20.1.0, SVG Export Plug-In . SVG Version: 6.00 Build 0)  -->
<svg version="1.1" id="Слой_1" xmlns="http://www.w3.org/2000/svg" xmlns:xlink="http://www.w3.org/1999/xlink" x="0px" y="0px"
	 viewBox="0 0 30 30" enable-background="new 0 0 30 30" xml:space="preserve">
<g>
	<g>
		<path fill="#BEBEBE" d="M28.9,27.9H1c-0.6,0-1,0.4-1,1s0.4,1,1,1h27.9c0.6,0,1.1-0.4,1.1-1C30,28.4,29.5,27.9,28.9,27.9z"/>
		<path fill="#BEBEBE" d="M0,18.5v5.1c0,0.3,0.1,0.6,0.3,0.7s0.4,0.3,0.7,0.3h5c0.3,0,0.6-0.1,0.8-0.3l17-17.4c0.4-0.4,0.4-1,0-1.5
			l-4.9-5.1c-0.5-0.4-1-0.4-1.5,0L14,3.7l-13.7,14C0.1,17.9,0,18.2,0,18.5z M18.1,2.6L21.6,6l-2,2l-3.5-3.4L18.1,2.6z M2.1,18.9
			L14.7,6.2l3.4,3.4L5.5,22.4H2.1V18.9z"/>
	</g>
</g>
</svg>
