<?xml version="1.0" encoding="utf-8"?>
<!-- Generator: Adobe Illustrator 20.1.0, SVG Export Plug-In . SVG Version: 6.00 Build 0)  -->
<svg version="1.1" id="Capa_1" xmlns="http://www.w3.org/2000/svg" xmlns:xlink="http://www.w3.org/1999/xlink" x="0px" y="0px"
	 viewBox="0 0 24 30" enable-background="new 0 0 24 30" xml:space="preserve">
<g>
	<path d="M16.6,0H0v30h24V7.3L16.6,0z M16.9,1.7L22.3,7h-5.4V1.7z M1,29V1h14.8v7H23v21H1z"/>
	<path d="M18.4,10.5h-8.2c-0.3,0-0.5,0.2-0.5,0.5s0.2,0.5,0.5,0.5h8.2c0.3,0,0.5-0.2,0.5-0.5S18.7,10.5,18.4,10.5z"/>
	<path d="M8.4,9.1l-2.2,1.7l-0.7-0.7c-0.2-0.2-0.5-0.2-0.7,0s-0.2,0.5,0,0.7l1,1C5.9,12,6,12,6.1,12s0.2,0,0.3-0.1l2.6-2
		c0.2-0.2,0.3-0.5,0.1-0.7C8.9,9,8.6,8.9,8.4,9.1z"/>
	<path d="M18.4,16h-8.2c-0.3,0-0.5,0.2-0.5,0.5S9.9,17,10.2,17h8.2c0.3,0,0.5-0.2,0.5-0.5S18.7,16,18.4,16z"/>
	<path d="M8.4,14.6l-2.2,1.7l-0.7-0.7c-0.2-0.2-0.5-0.2-0.7,0s-0.2,0.5,0,0.7l1,1c0.1,0.1,0.2,0.1,0.4,0.1c0.1,0,0.2,0,0.3-0.1
		l2.6-2c0.2-0.2,0.3-0.5,0.1-0.7C8.9,14.5,8.6,14.4,8.4,14.6z"/>
	<path d="M18.4,21.5h-8.2c-0.3,0-0.5,0.2-0.5,0.5s0.2,0.5,0.5,0.5h8.2c0.3,0,0.5-0.2,0.5-0.5S18.7,21.5,18.4,21.5z"/>
	<path d="M8.4,20.1l-2.2,1.7l-0.7-0.7c-0.2-0.2-0.5-0.2-0.7,0s-0.2,0.5,0,0.7l1,1C5.9,23,6,23,6.1,23s0.2,0,0.3-0.1l2.6-2
		c0.2-0.2,0.3-0.5,0.1-0.7C8.9,20,8.6,19.9,8.4,20.1z"/>
</g>
</svg>
