<?xml version="1.0" encoding="utf-8"?>
<!-- Generator: Adobe Illustrator 20.1.0, SVG Export Plug-In . SVG Version: 6.00 Build 0)  -->
<svg version="1.1" id="Capa_1" xmlns="http://www.w3.org/2000/svg" xmlns:xlink="http://www.w3.org/1999/xlink" x="0px" y="0px"
	 viewBox="0 0 42 42" enable-background="new 0 0 42 42" xml:space="preserve">
<path fill="#7CBB00" d="M41.1,19c0.8-0.8,1.1-2.1,0.7-3.2c-0.4-1.1-1.3-2-2.4-2.1l-10.2-1.5c-0.4,0-0.8-0.3-1-0.7l-4.5-9.6
	C23.3,0.7,22.2,0,21.1,0s-2.2,0.7-2.7,1.8l-4.6,9.5c-0.1,0.4-0.6,0.7-1,0.8L2.6,13.7c-1.1,0.1-2,1-2.4,2.1s0,2.4,0.7,3.2l7.4,7.4
	c0.3,0.3,0.4,0.8,0.4,1.3L7,38.2c-0.1,1.1,0.3,2.4,1.3,3.1c1,0.7,2.1,0.8,3.2,0.3l9.1-5c0.4-0.3,0.8-0.3,1.3,0l9.1,5
	c0.4,0.3,1,0.4,1.4,0.4c0.6,0,1.3-0.1,1.8-0.6c1-0.7,1.4-1.8,1.3-3.1l-1.7-10.6c-0.1-0.4,0-0.8,0.4-1.3L41.1,19z M31.7,27.9
	l1.7,10.6c0.1,0.6-0.1,1-0.6,1.4c-0.4,0.3-1,0.4-1.4,0.1l-9-5c-0.4-0.3-1-0.4-1.4-0.4s-1,0.1-1.4,0.4l-9.1,5c-0.4,0.3-1,0.3-1.4-0.1
	c-0.4-0.3-0.6-0.8-0.6-1.4l1.8-10.6c0.1-1-0.1-2.1-0.8-2.8l-7.4-7.4c-0.4-0.4-0.6-0.8-0.3-1.4c0.1-0.6,0.6-0.8,1-1L13,13.8
	c1-0.1,1.8-0.8,2.2-1.7l4.5-9.6C20,2.1,20.4,1.7,21,1.7c0.6,0,1,0.3,1.3,0.8l4.5,9.6c0.4,1,1.3,1.5,2.2,1.7l10.2,1.5
	c0.6,0.1,1,0.4,1.1,1c0.1,0.6,0,1-0.3,1.4l-7.4,7.4C31.9,26,31.6,26.9,31.7,27.9z"/>
</svg>
