<?xml version="1.0" encoding="utf-8"?>
<!-- Generator: Adobe Illustrator 20.1.0, SVG Export Plug-In . SVG Version: 6.00 Build 0)  -->
<svg version="1.1" id="Capa_1" xmlns="http://www.w3.org/2000/svg" xmlns:xlink="http://www.w3.org/1999/xlink" x="0px" y="0px"
	 viewBox="0 0 30 30" enable-background="new 0 0 30 30" xml:space="preserve">
<g>
	<path d="M15,0C6.7,0,0,6.7,0,15s6.7,15,15,15s15-6.7,15-15S23.3,0,15,0z M15,29C7.3,29,1,22.7,1,15S7.3,1,15,1s14,6.3,14,14
		S22.7,29,15,29z"/>
	<path d="M15,3c-0.3,0-0.5,0.2-0.5,0.5V15H7c-0.3,0-0.5,0.2-0.5,0.5S6.7,16,7,16h8c0.3,0,0.5-0.2,0.5-0.5v-12C15.5,3.2,15.3,3,15,3z
		"/>
</g>
</svg>
