<?xml version="1.0" encoding="utf-8"?>
<!-- Generator: Adobe Illustrator 20.1.0, SVG Export Plug-In . SVG Version: 6.00 Build 0)  -->
<svg version="1.1" id="Capa_1" xmlns="http://www.w3.org/2000/svg" xmlns:xlink="http://www.w3.org/1999/xlink" x="0px" y="0px"
	 viewBox="0 0 30 30" enable-background="new 0 0 30 30" xml:space="preserve">
<g>
	<path fill="#FAFAFA" d="M21.3,17.6L21.3,17.6c-0.3-0.1-0.5-0.2-0.8-0.3c-0.2-0.1-0.5-0.2-0.8-0.2c-0.2-0.1-0.4-0.1-0.6-0.2
		c-0.3-0.1-0.6-0.1-0.9-0.2c-0.1,0-0.2,0-0.3-0.1h-0.1c-0.2,0-0.4-0.1-0.6-0.1h-0.1l0,0H17c-0.2,0-0.3,0-0.5-0.1h-0.6
		c-0.7,0-1.4,0-2.1,0h-0.2h-0.1h-0.2c-0.2,0-0.4,0-0.6,0.1h-0.1c-0.1,0-0.3,0-0.4,0.1c-0.2,0-0.3,0-0.5,0.1
		c-0.3,0.1-0.6,0.1-0.9,0.2c-0.2,0.1-0.5,0.1-0.7,0.2H9.9c-0.5,0.1-0.9,0.3-1.4,0.5H8.4l0,0C3.3,19.7,0,24.1,0,28.9
		c0,0.1,0,0.2,0,0.3V30h29.9v-0.7c0-0.1,0-0.2,0-0.3C30,24.1,26.6,19.6,21.3,17.6z M1.5,28.8c0.1-4.3,3.1-8.2,7.8-10h0.1l0,0
		c0.4-0.1,0.7-0.3,1.1-0.4h0.1c0.2-0.1,0.4-0.1,0.6-0.2c0.3-0.1,0.5-0.1,0.8-0.2c0.1,0,0.3,0,0.4-0.1c0.1,0,0.2,0,0.3-0.1h0.1
		c0.2,0,0.4-0.1,0.6-0.1h0.5c0.6,0,1.2,0,2,0h0.5c0.1,0,0.2,0,0.4,0H17c0.2,0,0.4,0,0.5,0.1h0.1c0.1,0,0.2,0,0.3,0
		c0.3,0.1,0.6,0.1,0.9,0.2c0.2,0,0.4,0.1,0.6,0.1c0.2,0.1,0.5,0.1,0.7,0.2s0.4,0.1,0.6,0.2l0,0c4.8,1.8,7.8,5.8,7.9,10.1L1.5,28.8
		L1.5,28.8z M11.4,14.9c0.1,0,0.2,0.1,0.3,0.1l0.2,0.1c0.1,0,0.2,0.1,0.3,0.1c0.9,0.2,1.8,0.3,2.7,0.4H15c0.3,0,0.6,0,0.9,0
		c0.1,0,0.2,0,0.3,0h0.2c0.1,0,0.3,0,0.4-0.1c0.1,0,0.2,0,0.3-0.1l0.3-0.1c0.1,0,0.2,0,0.4-0.1c0.1,0,0.2,0,0.2-0.1l0.2-0.1
		c0.1,0,0.3-0.1,0.4-0.1s0.1,0,0.2-0.1h0.1c0.2-0.1,0.4-0.1,0.6-0.2l0.1-0.1c0.2-0.1,0.4-0.2,0.7-0.3c0.1-0.1,0.2-0.1,0.3-0.2
		l0.4-0.2c2.2-1.5,3.4-3.7,3.4-5.9V7.8C24.4,3.5,20.2,0,15,0c-4.9,0-9,3.2-9.3,7.3v0.1c0,0.1,0,0.3,0,0.4
		C5.7,10.9,7.9,13.7,11.4,14.9z M7.2,7.5L7.2,7.5c0.3-3.5,3.7-6.2,7.9-6.2c4.3,0,7.9,2.9,7.9,6.5v0.1c0,1.9-1,3.8-2.9,5L19.7,13
		c-0.1,0.1-0.2,0.1-0.3,0.2c-0.2,0.1-0.4,0.2-0.6,0.3l-0.1,0.1c-0.2,0.1-0.3,0.1-0.5,0.2L18,13.9c-0.1,0-0.2,0.1-0.3,0.1l-0.2,0
		h-0.1c-0.1,0-0.2,0-0.3,0.1l-0.3,0.1c-0.1,0-0.1,0-0.2,0s-0.2,0-0.3,0H16c-0.1,0-0.1,0-0.2,0c-0.2,0-0.5,0-0.7,0H15l0,0
		c-0.8,0-1.6-0.1-2.3-0.3c-0.1,0-0.1,0-0.2-0.1l-0.3-0.1c-0.1,0-0.2,0-0.3-0.1C9,12.6,7.1,10.2,7.2,7.5C7.1,7.7,7.1,7.6,7.2,7.5z"/>
</g>
</svg>
