<?xml version="1.0" encoding="utf-8"?>
<!-- Generator: Adobe Illustrator 20.1.0, SVG Export Plug-In . SVG Version: 6.00 Build 0)  -->
<svg version="1.1" id="Capa_1" xmlns="http://www.w3.org/2000/svg" xmlns:xlink="http://www.w3.org/1999/xlink" x="0px" y="0px"
	 viewBox="0 0 42 42" enable-background="new 0 0 42 42" xml:space="preserve">
<g>
	<path fill="#FF5201" d="M21,0C9.4,0,0,9.4,0,21s9.4,21,21,21s21-9.4,21-21S32.6,0,21,0z M21,40.3C10.4,40.3,1.7,31.6,1.7,21
		S10.4,1.7,21,1.7S40.3,10.4,40.3,21S31.6,40.3,21,40.3z"/>
	<path fill="#FF5201" d="M21,8.1c-0.4,0-0.8,0.4-0.8,0.8v17.6c0,0.4,0.4,0.8,0.8,0.8s0.8-0.4,0.8-0.8V8.8C21.8,8.4,21.4,8.1,21,8.1z
		"/>
	<path fill="#FF5201" d="M21,29.8c-0.4,0-0.8,0.4-0.8,0.8v1.7c0,0.4,0.4,0.8,0.8,0.8s0.8-0.4,0.8-0.8v-1.7
		C21.8,30.2,21.4,29.8,21,29.8z"/>
</g>
</svg>
